<svg width="35" height="35" viewBox="0 0 35 35" fill="none" xmlns="http://www.w3.org/2000/svg">
<g clip-path="url(#clip0_111_113)">
<path d="M17.8252 16.9765L17.5 17.2973L17.1733 16.9765C16.5663 16.3772 15.7477 16.0411 14.8947 16.0411C14.0417 16.0411 13.223 16.3772 12.616 16.9765C12.3148 17.2663 12.0751 17.6139 11.9114 17.9986C11.7477 18.3832 11.6633 18.797 11.6633 19.215C11.6633 19.633 11.7477 20.0468 11.9114 20.4314C12.0751 20.8161 12.3148 21.1637 12.616 21.4535L17.5 26.25L22.384 21.4535C22.6852 21.1637 22.9249 20.8161 23.0886 20.4314C23.2523 20.0468 23.3367 19.633 23.3367 19.215C23.3367 18.797 23.2523 18.3832 23.0886 17.9986C22.9249 17.6139 22.6852 17.2663 22.384 16.9765C21.7767 16.3771 20.9578 16.041 20.1046 16.041C19.2514 16.041 18.4325 16.3771 17.8252 16.9765Z" fill="#0D797D"/>
<path d="M31.6561 16.469L18.5311 3.34397C18.3957 3.20842 18.235 3.10089 18.0581 3.02752C17.8812 2.95415 17.6915 2.91638 17.5 2.91638C17.3085 2.91638 17.1188 2.95415 16.9419 3.02752C16.765 3.10089 16.6043 3.20842 16.469 3.34397L3.34397 16.469C3.14008 16.6729 3.00124 16.9327 2.945 17.2156C2.88875 17.4984 2.91763 17.7916 3.02798 18.058C3.13834 18.3245 3.32521 18.5522 3.56497 18.7125C3.80474 18.8727 4.08663 18.9583 4.37501 18.9583H5.83335V29.1667C5.83335 30.7752 7.14147 32.0833 8.75001 32.0833H26.25C27.8586 32.0833 29.1667 30.7752 29.1667 29.1667V18.9583H30.625C30.9134 18.9583 31.1953 18.8727 31.4351 18.7125C31.6748 18.5522 31.8617 18.3245 31.972 18.058C32.0824 17.7916 32.1113 17.4984 32.055 17.2156C31.9988 16.9327 31.8599 16.6729 31.6561 16.469ZM26.2515 29.1667H8.75001V15.1885L17.5 6.43855L26.25 15.1885V21.875L26.2515 29.1667Z" fill="#0D797D"/>
</g>
<defs>
<clipPath id="clip0_111_113">
<rect width="35" height="35" fill="white"/>
</clipPath>
</defs>
</svg>